<svg width="131" height="31" viewBox="0 0 131 31" fill="none" xmlns="http://www.w3.org/2000/svg">
<g clip-path="url(#clip0_1435_18269)">
<path d="M0 6.17882L4.55216 31L19.1715 22.7111L16.8542 16.8474L9.85262 20.7045L7.51793 4.36879L0 6.17882Z" fill="black"/>
<path d="M21.2068 5.82336L19.2612 15.597L24.8835 15.7181L25.6417 12.2997L31.1567 12.4207L30.6154 15.9626L26.5073 14.7424L24.9932 20.7297L29.2111 22.4389L27.9116 28.7891L33.4291 30.7454L38.8343 5.82336H21.2068Z" fill="black"/>
<path d="M87.1522 13.5047H105.451L100.816 30.4832L95.5207 29.0185L97.3965 19.9784H87.0425L87.1522 13.5047Z" fill="black"/>
<path d="M102.614 5.3822H87.4038V11.4904H102.614V5.3822Z" fill="black"/>
<path d="M107.249 5.87128V12.8341L117.276 12.7131L114.046 28.6228L119.564 30.332L126.435 5.87128H107.249Z" fill="black"/>
<path d="M129.002 3.98056C130.104 3.98056 131 3.08815 131 1.99154C131 0.89493 130.107 0.0025177 129.002 0.0025177C127.897 0.0025177 127.004 0.892409 127.004 1.99154C127.004 3.09067 127.899 3.98056 129.002 3.98056Z" fill="black"/>
<path d="M129.002 9.06026C130.104 9.06026 131 8.17037 131 7.07124C131 5.97211 130.107 5.08221 129.002 5.08221C127.897 5.08221 127.004 5.97463 127.004 7.07124C127.004 8.16784 127.899 9.06026 129.002 9.06026Z" fill="black"/>
<path d="M43.2092 5.95699V12.3098H50.7795L40.8296 26.2581L45.8033 30.6572L52.0765 22.5952L58.2425 29.9236L62.9992 24.5489L55.2144 16.9735L60.5124 5.95699H43.2092Z" fill="black"/>
<path d="M67.7838 4.62845L63.8901 14.4021L68.1081 16.4794L70.3804 12.6929L75.4639 14.8912L69.2979 27.7177L73.9498 30.5286L84.3312 11.2257L67.7838 4.62845Z" fill="black"/>
</g>
<defs>
<clipPath id="clip0_1435_18269">
<rect width="131" height="31" fill="white"/>
</clipPath>
</defs>
</svg>
